<svg width="958" height="813" viewBox="0 0 958 813" fill="none" xmlns="http://www.w3.org/2000/svg">
<rect x="97.2969" y="29.9375" width="372.722" height="22.4531" rx="11.2266" fill="#55585B" fill-opacity="0.05"/>
<rect x="1.49683" y="88.3156" width="417.628" height="22.4531" rx="11.2266" fill="#55585B" fill-opacity="0.05"/>
<rect x="444.572" y="88.3156" width="238.003" height="22.4531" rx="11.2266" fill="#55585B" fill-opacity="0.05"/>
<rect x="1.49683" width="238.003" height="22.4531" rx="11.2266" fill="#55585B" fill-opacity="0.05"/>
<rect x="1.49683" y="29.9375" width="52.3906" height="22.4531" rx="11.2266" fill="#55585B" fill-opacity="0.05"/>
<rect x="64.3656" y="29.9375" width="22.4531" height="22.4531" rx="11.2266" fill="#55585B" fill-opacity="0.05"/>
<rect x="1.49683" y="125.738" width="956.503" height="22.4531" rx="11.2266" fill="#55585B" fill-opacity="0.05"/>
<rect x="1.49683" y="458.044" width="226.028" height="22.4531" rx="11.2266" fill="#55585B" fill-opacity="0.05"/>
<rect x="238.003" y="458.044" width="128.731" height="22.4531" rx="11.2266" fill="#55585B" fill-opacity="0.05"/>
<rect x="1.49683" y="495.466" width="517.919" height="22.4531" rx="11.2266" fill="#55585B" fill-opacity="0.05"/>
<rect x="1.49683" y="178.128" width="74.8437" height="40.4156" rx="20.2078" fill="#55585B" fill-opacity="0.05"/>
<rect x="88.3157" y="178.128" width="74.8437" height="40.4156" rx="20.2078" fill="#55585B" fill-opacity="0.05"/>
<rect width="480.497" height="52.3906" rx="7.48438" transform="matrix(1 0 0 -1 1.49683 428.106)" fill="#55585B" fill-opacity="0.05"/>
<rect x="1.49683" y="329.313" width="480.497" height="22.4531" rx="11.2266" fill="#55585B" fill-opacity="0.05"/>
<rect x="1.49683" y="245.487" width="226.028" height="22.4531" rx="11.2266" fill="#55585B" fill-opacity="0.05"/>
<rect x="238.003" y="245.487" width="455.05" height="22.4531" rx="11.2266" fill="#55585B" fill-opacity="0.05"/>
<rect x="1.49683" y="282.909" width="517.919" height="22.4531" rx="11.2266" fill="#55585B" fill-opacity="0.05"/>
<rect x="1.49683" y="752.928" width="109.272" height="22.4531" rx="11.2266" fill="#55585B" fill-opacity="0.05"/>
<rect x="121.247" y="752.928" width="128.731" height="22.4531" rx="11.2266" fill="#55585B" fill-opacity="0.05"/>
<rect x="1.49683" y="790.35" width="372.722" height="22.4531" rx="11.2266" fill="#55585B" fill-opacity="0.05"/>
<rect x="19.4594" y="684.072" width="517.919" height="22.4531" rx="11.2266" fill="#55585B" fill-opacity="0.05"/>
<rect x="1.49683" y="706.525" width="59.875" height="7.48438" rx="3.74219" transform="rotate(-90 1.49683 706.525)" fill="#55585B" fill-opacity="0.05"/>
<rect y="553.844" width="417.628" height="22.4531" rx="11.2266" fill="#55585B" fill-opacity="0.05"/>
<rect x="19.4594" y="646.65" width="417.628" height="22.4531" rx="11.2266" fill="#55585B" fill-opacity="0.05"/>
<rect x="443.075" y="553.844" width="238.003" height="22.4531" rx="11.2266" fill="#55585B" fill-opacity="0.05"/>
<rect y="591.266" width="956.503" height="22.4531" rx="11.2266" fill="#55585B" fill-opacity="0.05"/>
</svg>
