<svg width="429" height="578" viewBox="0 0 429 578" fill="none" xmlns="http://www.w3.org/2000/svg">
<path fill-rule="evenodd" clip-rule="evenodd" d="M323.102 314.879C319.816 302.142 316.795 296.741 310.958 292.314C305.498 288.173 297.529 284.695 285.9 282.155C273.788 280.038 273.445 273.747 270.408 263.634C269.522 260.594 265.132 259.785 263.237 261.977C262.97 261.688 262.691 261.425 262.403 261.186C262.661 259.736 260.549 255.581 260.62 254.194C261.356 239.718 256.619 232.449 244.795 229.747C242.224 229.159 224.758 228.813 222.251 229.506C211.29 232.534 200.5 242.151 202.151 253.736C198.711 258.23 195.343 260.972 190.035 262.42C178.222 263.92 166.411 265.253 154.595 266.394C131.465 270.019 109.78 282.256 94.958 300.101C93.591 301.749 93.196 303.985 94.4025 305.741C93.4574 309.787 88.1372 319.602 92.3233 322.376C85.4395 338.831 69.601 370.637 69.5712 379.723C69.4464 417.896 73.572 467.583 111.26 488.708C112.769 490.191 112.985 491.831 113.638 494.037C115.295 500.987 121.313 505.953 127.899 505.548C160.345 506.269 191.771 502.312 224.217 502.121C238.526 502.036 255.734 504.171 268.164 505.593C280.594 507.015 293.142 505.757 305.07 502.121C306.076 503.703 308.11 504.625 310.173 504.171C322.539 501.715 332.539 494.099 341.248 485.774C343.91 480.935 354.304 467.147 350.173 462.348C353.918 446.523 353.723 429.519 347.068 414.451C348.011 411.688 346.292 408.653 347.068 405.8C347.629 403.736 349.068 402.882 349.792 400.838C350.811 397.962 349.703 394.103 348.556 391.168C348.086 389.705 349.421 388.131 349.792 386.638C351.552 379.597 347.522 380.218 344.616 375.511C344.659 375.497 345.415 372.137 345.412 372.153C345.857 369.755 344.742 366.681 343.77 364.679C343.113 363.325 341.705 362.478 340.307 362.634C341.715 357.855 343.496 353.878 345.412 349.274C348.799 341.159 353.087 333.387 357.951 326.041C359.943 323.033 357.268 319.548 354.044 319.343C343.611 318.681 333.291 317.18 323.102 314.879Z" fill="white"/>
<path fill-rule="evenodd" clip-rule="evenodd" d="M292.652 376.252C288.479 374.616 283.985 373.712 279.469 373.361C281.901 372.936 284.339 372.525 286.797 372.314C288.513 372.167 290.103 372.182 291.392 373.482C292.252 374.349 292.656 375.464 293.221 376.489C293.036 376.406 292.844 376.327 292.652 376.252ZM337.443 360.959C330.609 361.307 323.767 362.931 317.584 365.874C315.055 367.079 312.763 368.82 312.092 371.684C311.753 373.147 311.836 374.658 312.016 376.135C312.152 377.254 312.186 378.683 313.159 379.44C313.325 379.568 313.502 379.666 313.687 379.738C311.406 380.766 309.234 382.003 307.304 383.276C305.54 384.441 303.727 386.234 302.913 388.258C302.845 388.028 302.777 387.814 302.709 387.61C301.322 383.51 299.185 380.153 295.818 377.895C296.414 377.628 296.825 376.994 296.633 376.12C295.833 372.468 292.459 369.295 288.648 369.521C284.475 369.766 279.993 371.285 276.219 373.203C274.844 373.173 273.471 373.192 272.114 373.252C271.881 373.26 271.892 373.577 272.114 373.603C273.215 373.742 274.316 373.897 275.417 374.077C278.033 374.496 280.642 375.027 283.193 375.687C286.255 376.478 289.421 377.273 292.282 378.656C297.831 381.343 301.265 388.368 300.561 394.48C300.444 395.482 300.055 398.512 298.664 398.199C297.488 397.936 297.021 395.482 296.61 394.574C295.509 392.162 293.526 390.587 291.148 389.521C288.354 388.266 285.365 387.418 282.469 386.431C280.83 385.869 279.19 385.307 277.547 384.75C275.865 384.174 274.267 383.378 272.476 383.781C271.394 384.026 271.27 385.315 271.877 386.054C272.801 387.18 274.173 387.512 275.503 387.976C277.26 388.586 279.013 389.197 280.766 389.807C283.476 390.749 286.315 391.544 288.957 392.697L288.875 392.886C288.659 392.825 288.407 393.04 288.449 393.304C288.844 395.742 289.395 398.561 288.784 401.003C288.302 402.94 286.601 405.085 284.392 404.515C284.739 404.199 284.867 403.652 284.634 403.147C283.759 401.278 272.299 393.9 271.278 396.64C271.244 396.737 271.349 396.809 271.432 396.794C272.303 396.613 273.762 398.098 274.459 398.569C275.465 399.247 276.487 399.91 277.483 400.607C278.572 401.369 279.635 402.168 280.672 402.993C281.486 403.641 282.1 404.316 283.035 404.644C282.545 404.877 282.157 405.31 281.991 405.864C281.569 407.308 280.755 408.532 279.341 409.17C277.859 409.833 276.19 409.414 274.629 409.577C272.503 409.791 270.648 410.801 269.099 412.245C265.846 415.282 264.213 420.633 259.663 422.069C256.945 422.924 253.93 422.385 251.178 421.997C248.105 421.564 245.112 421.221 242.017 421.673C239.054 422.107 236.253 423.131 233.547 424.383C231.01 425.554 228.205 426.881 225.955 428.63C225.491 427.201 225.024 425.788 224.669 424.33C223.832 420.882 223.38 417.369 223.27 413.827C223.169 410.455 223.357 407.067 223.647 403.709C223.791 402.032 224.017 400.362 224.16 398.685C224.198 398.263 224.273 397.811 224.33 397.359C228.348 394.989 232.57 393.173 236.826 391.303C236.838 391.3 236.849 391.292 236.86 391.288C236.992 391.228 237.121 391.172 237.252 391.115C237.249 391.107 237.245 391.1 237.237 391.092C237.724 390.795 238.063 390.399 238.266 389.954C244.4 385.888 249.527 380.337 253.349 373.863C254.951 371.149 256.493 368.334 258.589 365.957C260.821 363.42 263.471 361.913 266.75 361.129C270.584 360.21 274.535 359.659 278.463 359.347C280.608 359.177 283.005 358.913 285.342 358.925C286.971 358.936 288.565 359.075 290.028 359.478C292.196 360.074 293.462 361.721 294.823 363.386C296.124 364.985 297.417 366.586 298.63 368.252C299.78 369.83 300.866 371.462 301.808 373.173C302.374 374.198 302.898 375.254 303.339 376.342C303.493 376.727 303.697 377.164 303.791 377.563C303.885 377.966 303.712 378.393 304.164 378.393C302.298 378.419 302.317 381.4 304.172 381.29C311.432 380.868 301.032 366.699 299.512 364.724C297.36 361.928 295.14 358.28 291.694 356.98C291.645 356.961 291.592 356.943 291.543 356.927C292.546 355.978 293.338 354.84 294.096 353.683C294.876 352.492 295.807 351.128 296.063 349.714C296.225 348.814 295.106 348.301 294.574 349.089C293.801 350.238 293.428 351.693 292.852 352.956C292.263 354.237 291.547 355.446 290.982 356.739C289.621 356.321 288.151 356.129 286.654 356.065C288.543 353.51 291.769 348.58 292.158 347.947C293.945 345.015 295.645 341.993 297.27 338.967C299.026 335.688 300.53 332.274 302.212 328.958C303.165 327.078 304.127 325.182 305.186 323.358C305.552 322.732 305.944 322.107 306.388 321.538C306.475 321.425 306.584 321.331 306.686 321.225C306.803 321.161 306.924 321.089 306.992 321.052C307.602 320.701 307.817 319.888 308.247 319.371C308.933 318.538 309.74 318.44 310.773 318.429C312.974 318.406 315.183 318.493 317.381 318.553C320.611 318.644 323.838 318.772 327.065 318.941C328.042 318.994 329.014 319.047 329.99 319.107C334.684 319.386 339.373 319.751 344.051 320.2C348.191 320.596 352.33 321.24 356.473 321.549C350.863 334.871 344.643 347.951 337.601 360.575C337.53 360.703 337.477 360.831 337.443 360.959ZM306.321 395.279C305.416 395.694 304.538 396.21 303.719 396.798C303.855 395.882 303.889 394.917 303.851 393.948C304.526 394.672 305.389 395.087 306.321 395.279ZM344.941 372.363C344.877 372.37 344.817 372.404 344.786 372.468C343.535 375.05 344.059 377.933 346.102 379.956C347.173 381.011 349.506 382.202 349.43 383.936C349.366 385.338 347.84 386.513 347.188 387.67C346.581 388.748 346.355 389.931 346.841 391.1C347.463 392.596 349.201 393.191 349.796 394.661C350.55 396.526 349.325 398.776 348.466 400.4C347.666 401.904 346.633 403.407 345.947 404.998C341.352 407.376 337.24 411.024 333.704 414.728C329.832 418.779 326.511 423.546 320.363 423.426C319.748 423.414 319.281 423.738 319.002 424.187C317.29 424.266 315.575 424.3 313.864 424.308C310.856 424.322 307.847 424.292 304.843 424.198C304.632 423.471 304.786 422.484 304.775 421.869C304.737 419.891 304.718 417.916 304.636 415.937C304.613 415.388 304.59 414.833 304.568 414.283C305.65 416.239 307.761 417.128 310.166 416.993C314.033 416.767 317.924 416.133 321.753 415.564C323.77 415.267 325.783 414.927 327.793 414.566C329.444 414.272 331.773 414.347 332.927 413.024C333.198 412.716 333.214 412.15 332.788 411.943C331.645 411.381 330.925 411.694 329.67 411.936C328.139 412.233 326.605 412.516 325.067 412.78C322.115 413.292 319.156 413.767 316.19 414.185C314.501 414.422 312.808 414.656 311.116 414.841C309.638 414.999 307.972 415.214 306.78 414.103C304.379 411.856 305.725 408.091 307.244 405.823C307.274 405.778 307.274 405.736 307.263 405.699C308.695 405.363 310.124 404.971 311.549 404.696C314.29 404.169 317.049 403.724 319.812 403.329C325.489 402.518 331.204 401.983 336.911 401.444C338.325 401.308 338.34 399.085 336.911 399.217C328.712 399.967 320.472 400.679 312.382 402.258C310.354 402.65 308.341 403.095 306.339 403.596C305.393 403.83 304.379 404.195 303.388 404.207C303.327 404.207 303.267 404.207 303.207 404.202C301.265 404.143 300.983 402.481 302.05 401.098C302.181 400.928 302.317 400.758 302.457 400.596C304.342 398.35 306.69 396.85 309.11 395.298C311.821 394.928 314.523 394.107 317.177 393.504C323.729 392.012 330.281 390.519 336.836 389.031C338.121 388.737 337.575 386.762 336.29 387.052C331.314 388.179 326.338 389.306 321.361 390.433L314.079 392.083C312.623 392.411 310.806 393.07 309.095 393.308C308.251 393.425 307.433 393.44 306.694 393.267C304.308 392.702 304.187 389.72 305.216 387.949C306.37 385.96 308.548 384.716 310.482 383.589C313.834 381.633 317.4 380.228 320.883 378.607C321.501 378.471 322.119 378.336 322.738 378.2C326.334 377.409 330.443 377.021 333.828 375.57C334.842 375.14 334.287 373.542 333.285 373.565C330.658 373.622 327.91 374.556 325.342 375.11C322.564 375.713 319.782 376.312 317.004 376.911C316.725 376.972 315.074 377.499 314.825 377.382C314.667 377.307 314.61 376.757 314.557 376.395C314.387 375.204 314.263 373.953 314.448 372.759C314.855 370.079 317.091 368.82 319.352 367.792C324.389 365.504 329.911 364.073 335.407 363.499C336.674 363.368 337.941 363.285 339.215 363.243C340.711 363.198 341.944 362.934 342.702 364.408C343.893 366.729 344.549 369.714 344.941 372.363ZM337.947 456.529C336.849 452.735 337.148 448.684 336.396 444.814C336.008 442.818 335.479 440.837 334.9 438.888C334.434 437.314 333.655 435.639 333.567 433.996C333.562 433.886 333.691 433.823 333.78 433.873C335.328 434.76 336.517 436.676 337.4 438.18C338.457 439.979 339.264 441.863 339.915 443.844C341.213 447.791 342.278 452.552 340.605 456.529C340.107 457.713 338.358 457.95 337.947 456.529ZM304.032 406.275C304.96 406.185 305.887 406.008 306.814 405.8C305.778 406.811 304.82 408.027 304.288 409.377C304.206 408.341 304.1 407.308 303.961 406.279C303.983 406.279 304.01 406.279 304.032 406.275ZM295.12 485.251C293.485 484.11 292.293 482.515 290.906 481.108C289.542 479.724 291.675 477.592 293.039 478.976C294.222 480.177 295.249 481.677 296.642 482.648C297.312 483.115 297.622 483.959 297.183 484.71C296.795 485.373 295.788 485.717 295.12 485.251ZM286 441.406C288.986 440.116 291.922 438.711 295.046 437.781C296.913 437.225 297.703 440.136 295.848 440.688C292.97 441.544 290.272 442.821 287.523 444.009C285.758 444.772 284.224 442.174 286 441.406ZM254.475 440.503C253.744 438.703 256.663 437.927 257.383 439.702C258.211 441.745 259.16 443.736 259.988 445.779C260.718 447.58 257.799 448.356 257.08 446.581C256.252 444.538 255.302 442.547 254.475 440.503ZM223.358 476.461C222.871 477.11 222.061 477.461 221.295 477.003C220.653 476.618 220.261 475.596 220.754 474.94C222.191 473.025 223.647 471.133 225.332 469.425C226.698 468.041 228.829 470.174 227.464 471.557C225.96 473.082 224.642 474.751 223.358 476.461ZM218.908 274.702C220.293 275.647 221.505 276.795 222.688 277.977C224.063 279.35 221.93 281.482 220.555 280.108C219.559 279.112 218.554 278.102 217.386 277.305C216.712 276.845 216.409 275.988 216.845 275.243C217.236 274.575 218.236 274.243 218.908 274.702ZM264.179 323.216C263.396 324.782 262.692 326.318 262.647 328.099C262.6 330.038 259.584 330.039 259.632 328.099C259.69 325.769 260.549 323.748 261.575 321.694C262.443 319.956 265.043 321.485 264.179 323.216ZM280.789 284.253C282.41 283.172 283.919 285.785 282.312 286.856C281.009 287.724 279.706 288.592 278.403 289.461C276.782 290.541 275.274 287.928 276.881 286.857C278.183 285.989 279.486 285.121 280.789 284.253ZM208.745 352.376C208.468 354.292 205.562 353.472 205.836 351.575C206.26 348.642 206.778 345.749 207.574 342.892C208.095 341.023 211.003 341.822 210.482 343.694C209.686 346.55 209.168 349.444 208.745 352.376ZM198.171 386.91C196.23 386.869 196.23 383.854 198.171 383.895C199.928 383.933 201.655 384.395 203.349 384.818C205.234 385.288 204.43 388.195 202.547 387.725C201.115 387.367 199.656 386.942 198.171 386.91ZM194.268 456.476C193.601 456.8 192.917 457.092 192.243 457.401C190.893 458.017 189.544 458.635 188.195 459.254C185.385 460.544 182.577 461.838 179.771 463.136C174.154 465.735 168.494 468.242 162.863 470.813C157.122 473.435 151.395 476.092 145.676 478.762C142.981 480.02 140.266 481.232 137.557 482.456C135.24 483.504 132.376 485.334 129.833 485.506C129.702 485.515 129.658 485.349 129.733 485.265C130.694 484.172 132.226 483.537 133.489 482.827C134.779 482.101 136.093 481.418 137.401 480.726C140.128 479.282 142.859 477.849 145.612 476.455C151.12 473.669 156.638 470.903 162.157 468.141C167.786 465.323 173.408 462.486 179.086 459.769C181.759 458.489 184.435 457.214 187.113 455.942C188.564 455.253 190.015 454.565 191.466 453.879C192.093 453.582 192.714 453.262 193.354 452.997C194.206 452.644 194.853 452.716 195.732 452.499C197.164 452.146 197.784 453.967 196.685 454.76C195.779 455.413 195.303 455.971 194.268 456.476ZM174.135 487.389C173.826 486.637 174.474 485.723 175.188 485.534C176.044 485.309 176.731 485.829 177.043 486.587C177.87 488.598 179.048 490.442 180.564 492C181.918 493.392 179.787 495.525 178.431 494.132C176.532 492.179 175.167 489.897 174.135 487.389ZM159.324 438.998C157.949 437.624 160.082 435.492 161.456 436.866L165.365 440.773C166.739 442.147 164.606 444.279 163.232 442.905L159.324 438.998ZM119.225 432.628C116.416 433.452 113.138 434.209 111.222 436.605C111.129 436.723 110.972 436.572 111.028 436.455C113.48 431.373 120.514 429.59 125.384 427.809C128.828 426.549 132.362 425.505 135.926 424.572C135.57 420.507 136.552 416.151 136.894 412.107C137.258 407.789 137.555 403.46 137.707 399.129C137.863 394.71 137.901 390.262 137.755 385.842C137.61 381.439 137.038 377.089 136.788 372.7C136.764 372.276 137.355 372.256 137.482 372.607C138.962 376.679 139.595 381.19 140.076 385.485C140.572 389.908 140.737 394.319 140.674 398.769C140.608 403.344 140.342 407.908 139.977 412.468C139.804 414.629 139.603 416.788 139.413 418.948C139.269 420.596 139.201 422.231 138.865 423.827C141.015 423.3 143.169 422.801 145.317 422.316C152.165 420.772 159.041 419.338 165.861 417.667C169.208 416.848 172.508 415.866 175.84 414.994C178.978 414.173 182.29 413.177 185.512 412.811C186.661 412.68 186.808 414.252 186.047 414.785C183.428 416.623 179.951 417.903 176.926 418.932C173.891 419.964 170.736 420.707 167.624 421.471C161.136 423.067 154.587 424.371 148.047 425.729C141.517 427.086 134.974 428.433 128.517 430.108C125.407 430.914 122.308 431.723 119.225 432.628ZM103.827 351.974C102.148 352.96 100.633 350.353 102.306 349.371C104.495 348.087 106.828 347.122 109.18 346.18C110.985 345.458 111.761 348.375 109.981 349.088C107.868 349.933 105.794 350.82 103.827 351.974ZM97.7477 463.978C96.0642 464.954 94.5472 462.348 96.2259 461.376C98.5834 460.009 101.165 459.098 103.608 457.903C105.347 457.052 106.873 459.653 105.13 460.506C102.688 461.701 100.105 462.612 97.7477 463.978ZM95.0132 400.4C96.6409 401.946 98.8134 402.673 100.862 403.485C102.648 404.193 101.865 407.107 100.06 406.392C97.508 405.38 94.9084 404.457 92.8807 402.531C91.4701 401.192 93.6063 399.064 95.0132 400.4ZM113.021 314.055C114.811 314.757 114.027 317.671 112.22 316.962C110.215 316.176 108.144 315.578 106.14 314.792C104.351 314.09 105.134 311.176 106.942 311.884C108.946 312.671 111.017 313.269 113.021 314.055ZM144.79 279.759C146.691 279.439 147.501 282.344 145.591 282.667C143.223 283.066 140.89 283.534 138.643 284.403C136.829 285.105 136.05 282.189 137.841 281.496C140.088 280.627 142.421 280.159 144.79 279.759ZM155.286 363.262C153.543 362.405 155.073 359.806 156.808 360.659C158.637 361.558 160.532 362.252 162.528 362.677C164.428 363.082 163.619 365.988 161.726 365.585C159.48 365.106 157.343 364.273 155.286 363.262ZM165.2 316.226C167.078 315.712 167.871 318.621 166.002 319.133C162.713 320.034 159.327 320.502 156.013 321.304C154.125 321.76 153.326 318.853 155.212 318.397C158.525 317.595 161.912 317.127 165.2 316.226ZM207.257 301.465C209.166 301.819 208.352 304.724 206.456 304.373C204.436 303.999 202.39 303.993 200.342 303.992C198.399 303.991 198.402 300.977 200.342 300.977C202.668 300.979 204.964 301.041 207.257 301.465ZM344.421 317.216C339.494 316.745 334.559 316.368 329.617 316.085C329.387 316.073 329.161 316.059 328.931 316.047C328.905 315.995 328.871 315.945 328.837 315.893C327.224 313.526 326.036 311.16 325.007 308.484C324.023 305.936 323.069 303.31 321.554 301.011C319.826 298.392 317.492 296.343 314.935 294.567C313.383 295.61 311.944 296.831 310.627 298.125C309.241 299.486 307.108 297.355 308.494 295.993C309.665 294.843 310.914 293.78 312.234 292.821C310.71 291.894 309.154 291.024 307.636 290.158C301.947 286.914 296.124 283.913 290.179 281.17C287.416 279.893 284.619 278.758 281.803 277.609C280.287 276.991 278.791 276.196 277.275 275.48C277.385 274.409 277.064 273.211 276.242 272.506C275.635 271.99 275.164 271.798 274.44 271.433C274.278 271.376 274.18 271.342 274.135 271.323C274.169 271.331 274.267 271.361 274.429 271.414C274.814 271.591 274.844 271.538 274.52 271.259C274.501 270.649 273.298 269.36 273.023 268.731C272.065 266.571 271.768 264.287 270.354 262.32C268.405 259.611 265.133 258.586 262.083 259.505C261.767 256.246 261.684 252.843 260.455 249.933C260.421 249.855 260.312 249.82 260.263 249.907C258.981 252.089 258.872 254.52 258.774 257.037C258.679 259.4 258.769 261.815 259.079 264.163C258.883 264.314 258.683 264.457 258.476 264.596C257.503 265.237 256.455 265.731 255.354 266.097C253.259 266.79 251.061 267.091 248.863 267.197C243.19 267.468 237.343 266.895 231.764 265.923C226.121 264.939 217.469 263.462 212.448 260.64C209.134 258.778 206.077 256.506 202.978 254.305C204.102 250.687 204.388 246.798 203.257 243.742C203.122 243.376 202.549 243.308 202.439 243.742C201.731 246.659 201.523 249.59 200.581 252.473C200.566 252.515 200.551 252.56 200.536 252.601C200.242 252.402 199.948 252.206 199.654 252.01C198.975 251.561 198.051 251.897 197.644 252.537C191.134 262.791 180.824 263.379 169.997 265.211C158.149 267.215 146.241 269.379 134.849 273.302C123.955 277.055 113.543 282.52 105.295 290.682C103.428 292.53 101.681 294.499 100.033 296.555C101.628 296.756 103.209 297.068 104.77 297.559C106.619 298.139 105.824 301.049 103.968 300.466C101.962 299.836 99.9338 299.524 97.8846 299.369C92.2802 307.033 87.9104 315.723 84.1316 324.277C76.8837 340.678 72.1659 358.144 69.9949 375.926C71.1869 375.212 72.4004 374.532 73.644 373.899C75.372 373.021 76.8961 375.623 75.1662 376.502C73.2452 377.479 71.3792 378.556 69.5712 379.723C68.7815 387.507 68.4754 395.341 68.6608 403.162C69.1019 421.809 71.62 441.001 77.316 458.792C80.1094 467.524 83.8112 476.184 89.3263 483.563C91.8218 486.905 94.6566 489.92 97.9965 492.433C99.6137 493.654 101.325 494.744 103.131 495.663C105.457 496.854 108.488 497.246 110.493 498.93C111.153 499.484 111.662 500.215 112.046 501.04C111.824 502.608 111.797 504.179 112.227 505.747C112.363 506.237 112.732 506.637 113.188 506.829C113.196 506.964 113.196 507.096 113.196 507.224C113.196 507.285 113.286 507.3 113.298 507.24C113.317 507.123 113.335 507.006 113.354 506.886C113.501 506.934 113.656 506.957 113.814 506.957C119.54 506.979 125.274 506.839 131.007 506.645C130.564 505.287 130.084 503.941 129.623 502.583C128.997 500.739 131.91 499.955 132.531 501.782C133.07 503.369 133.634 504.943 134.136 506.536C140.279 506.307 146.421 506.033 152.551 505.83C165.591 505.397 178.626 505.253 191.669 504.979C211.924 504.55 232.326 503.671 252.612 504.53C253.314 503.042 254.099 501.588 254.844 500.119C255.722 498.387 258.323 499.914 257.448 501.641C256.93 502.661 256.394 503.668 255.885 504.687C259.993 504.9 264.098 505.182 268.194 505.567C275.183 506.222 282.104 507.386 289.086 508.11C296.184 508.849 303.128 508.717 310.169 507.545C311.436 507.334 312.182 506.569 312.492 505.619C312.503 505.615 312.51 505.608 312.518 505.596C312.879 505.174 313.219 504.824 313.569 504.519C313.988 504.248 314.441 504.017 314.972 503.814C315.963 503.437 316.996 503.207 318.044 503.053C319.198 502.88 320.366 502.864 321.52 502.721C322.492 502.597 323.443 502.412 324.392 502.186C326.1 501.779 327.721 501.248 329.335 500.543C330.741 499.929 332.011 499.047 333.21 498.086C335.69 496.273 337.839 493.96 339.716 491.555C340.809 490.15 341.839 488.691 342.773 487.173C344.402 484.542 345.789 481.81 347.191 479.055C347.7 478.239 348.165 477.403 348.589 476.55C345.849 475.742 343.082 475.084 340.177 475.038C338.234 475.006 338.235 471.992 340.177 472.023C343.509 472.076 346.66 472.854 349.792 473.781C349.945 473.376 350.091 472.968 350.226 472.555C350.599 471.692 350.908 470.806 351.165 469.909C351.315 469.502 351.466 469.095 351.617 468.688C351.956 467.279 352.296 465.866 352.639 464.452C353.321 462.191 353.86 459.896 354.256 457.571C354.588 456.041 354.844 454.5 355.017 452.94C355.545 449.16 355.975 445.388 356.005 441.567C355.96 439.211 355.809 436.86 355.553 434.52C355.443 432.929 355.259 431.347 355.01 429.775C354.686 427.439 354.365 425.125 353.826 422.819C353.423 421.259 353.019 419.698 352.616 418.138C351.61 414.886 350.422 411.698 349.053 408.581C348.978 408.386 348.597 407.956 348.368 407.952C348.194 407.948 347.953 408.107 348.032 408.318C348.04 408.336 348.047 408.359 348.055 408.378C347.976 408.201 347.9 408.02 347.821 407.843C347.753 407.677 347.489 407.346 347.286 407.349C347.274 407.349 347.263 407.349 347.248 407.353C347.301 407.316 347.35 407.266 347.399 407.21C348.752 405.608 349.63 403.502 350.599 401.647C351.402 400.117 352.16 398.505 352.379 396.775C352.57 395.257 352.311 393.76 351.357 392.532C350.271 391.133 348.228 390.478 349.363 388.458C350.652 386.159 352.548 384.166 350.66 381.554C349.698 380.224 348.175 379.493 347.044 378.336C345.744 376.998 345.125 375.208 345.16 373.38C345.239 373.426 345.344 373.403 345.382 373.29C346.475 369.989 345.684 366.364 344.564 363.149C343.953 361.405 342.66 360.926 341.156 360.839C347.67 348.121 353.765 335.198 359.198 321.979C359.379 321.545 359.556 321.112 359.733 320.678C359.997 320.03 359.439 319.168 358.795 319.024C354.098 317.995 349.205 317.668 344.421 317.216Z" fill="#282828"/>
<path fill-rule="evenodd" clip-rule="evenodd" d="M302.481 122.04C302.355 117.533 295.798 115.662 293.904 120.125C293.786 120.245 293.659 120.36 293.539 120.462C294.132 119.954 292.892 120.795 292.69 120.899C292.517 120.988 292.341 121.068 292.165 121.151C290.947 109.735 286.81 97.4282 276.123 91.6978C261.216 84.4715 243.991 83.0609 227.637 83.7788C219.352 84.2702 209.786 85.5945 202.425 81.4047C200.132 80.0993 198.293 78.0444 195.702 77.2375C187.52 75.0251 183.809 83.4235 184.924 90.3299C181.434 90.3574 177.973 92.2887 176.467 95.4686C175.582 97.3505 175.598 99.3813 174.835 101.27C172.495 106.06 169.147 109.503 171.04 115.31C167.711 119.097 169.609 124.83 172.295 128.455C173.622 130.341 175.202 132.151 176.174 134.262C177.117 136.283 175.693 138.68 174.901 140.596C169.043 154.482 169.377 169.775 172.529 184.259C166.204 187.003 164.306 195.58 168.43 200.981C169.85 202.89 171.581 203.598 173.545 204.773C176.03 206.14 174 211.616 174.796 214.261C175.877 220.718 181.758 224.694 187.572 220.501C191.262 219.943 194.238 230.675 196.918 233.369C198.569 235.539 200.401 237.488 202.394 239.287C208.331 254.559 238.755 262.303 253.797 261.419C269.548 259.77 280.175 246.397 289.023 234.529C293.567 228.205 296.522 221.127 297.596 213.408C298.676 205.649 298.204 197.877 297.474 190.109C295.941 173.604 293.522 149.827 291.96 133.144C297.604 132.68 302.653 127.876 302.481 122.04Z" fill="white"/>
<path fill-rule="evenodd" clip-rule="evenodd" d="M179.444 112.117C179.438 112.14 179.446 112.158 179.451 112.183C179.453 112.176 179.454 112.172 179.456 112.163C179.451 112.144 179.448 112.132 179.444 112.117Z" fill="#4F66AF"/>
<path fill-rule="evenodd" clip-rule="evenodd" d="M179.442 112.357C179.421 112.335 179.392 112.319 179.363 112.297C179.362 112.298 179.361 112.298 179.361 112.299C179.389 112.317 179.415 112.338 179.442 112.357Z" fill="#4F66AF"/>
<path fill-rule="evenodd" clip-rule="evenodd" d="M301.584 124.172C303.438 122.632 306.358 124.05 305.73 126.585C305.046 129.346 302.087 131.232 299.643 132.367C297.128 133.534 294.678 133.759 291.934 133.631L291.9 133.624C292.662 136.677 293.094 139.851 293.677 142.924C294.416 146.821 295.144 150.72 295.861 154.621C296.554 158.392 297.43 162.167 297.963 165.957C298.5 169.782 299.016 173.61 299.544 177.437C300.424 183.828 301.135 190.248 301.885 196.657L302.242 199.691C302.993 206.112 303.597 212.542 302.174 218.932C300.841 224.92 297.837 230.507 294.353 235.506C290.941 240.401 287.13 245.108 282.946 249.366C274.875 257.578 264.924 264.155 253.254 265.375C248.229 265.9 242.863 265.316 238.139 263.49L237.825 263.367C233.044 261.48 227.188 258.249 225.943 252.946C225.179 249.693 228.532 247.153 231.472 248.697C232.835 249.412 233.859 250.229 234.977 251.254L235.175 251.437C236.089 252.285 236.441 252.546 237.495 253.21C239.658 254.57 241.279 255.214 243.735 255.832C248.264 256.97 253.152 256.79 257.749 255.443C267.511 252.584 275.083 245.122 281.57 237.641C285.093 233.578 288.436 229.316 291.015 224.581C293.72 219.613 294.969 214.397 294.894 208.745C294.809 202.367 293.927 195.964 293.349 189.616C292.759 183.144 292.214 176.675 291.734 170.194C291.284 164.117 291.24 158.012 291.083 151.916L291.052 150.773C290.96 147.536 290.896 144.299 290.822 141.062C290.75 137.834 290.494 134.565 290.827 131.351C290.85 131.117 291.166 131.058 291.243 131.295C291.439 131.897 291.61 132.509 291.772 133.124C291.797 133.105 291.825 133.088 291.859 133.076C294.009 132.338 295.989 130.863 297.603 129.273C299.142 127.755 299.946 125.532 301.584 124.172ZM183.941 78.9516C185.291 73.406 191.37 72.1673 195.864 74.838C198.026 76.1223 199.757 77.9745 201.777 79.4464C203.784 80.9101 206.003 82.0855 208.344 82.9156C212.996 84.5647 217.902 85.1643 222.819 85.1858C234.784 85.2381 246.504 81.8767 258.487 82.2516C267.758 82.5418 277.6 85.2811 284.325 91.9814C287.948 95.5908 290.283 100.231 291.535 105.158C292.12 107.46 292.557 109.819 292.901 112.171L292.985 112.76C293.177 114.135 293.487 115.59 293.515 116.98C293.541 118.228 293.225 119.534 293.054 120.77C292.693 123.374 288.659 123.077 288.079 120.77C286.759 115.516 287.311 110.094 285.698 104.859C284.267 100.216 281.495 96.1565 277.477 93.3803C260.529 81.6679 238.795 91.4761 220.122 90.5648C215.558 90.3421 210.927 89.6371 206.622 88.066C204.402 87.2558 202.216 86.2677 200.203 85.0248C198.359 83.8869 196.762 82.4571 195.055 81.1414L194.302 80.5693C193.131 79.6891 191.139 78.313 189.959 79.4773C189.445 79.9841 189.414 81.13 189.423 82.005L189.429 82.4005C189.482 86.1154 190.24 89.8236 188.849 93.4127C188.215 95.0497 186.452 96.0819 184.775 95.1548L184.688 95.1051C181.141 92.9957 176.481 97.2343 179.206 100.742L179.291 100.848C180.824 102.711 180.006 105.99 177.263 105.982L177.164 105.98C172.275 105.828 170.106 111.935 174.32 114.604L174.45 114.684C177.871 116.73 174.87 121.651 171.364 119.961C171.661 120.105 171.144 120.103 170.849 120.499C170.565 120.88 170.544 121.209 170.611 121.69C170.816 123.147 172.098 124.375 173.136 125.296C175.494 127.391 178.418 128.836 181.43 129.717C193.497 133.243 205.876 128.93 217.633 126.324C229.89 123.609 243.734 122.515 254.424 130.221C254.551 130.313 254.439 130.516 254.299 130.435C246.627 125.982 237.232 126.377 228.846 128.203C217.85 130.597 206.95 135.054 195.688 136.228C198.85 141.808 200.173 148.398 199.328 154.78C198.747 159.173 196.998 162.983 194.932 166.845L194.538 167.581C192.696 171.047 191.27 174.322 191.247 178.337C191.225 182.327 185.292 183.168 184.286 179.279C182.003 170.448 190.321 163.492 193.715 156.209C196.615 149.984 196.705 142.725 194.357 136.351C191.709 136.564 189.04 136.586 186.343 136.346C184.028 136.139 181.645 135.722 179.323 135.062L178.394 138.966C177.163 144.166 176.023 149.363 175.677 154.764C175.423 158.733 175.437 162.721 175.824 166.68C176.158 170.1 176.865 173.398 177.584 176.736C178.201 177.549 178.516 178.794 178.342 179.786C182.346 180.938 185.494 184.096 186.645 188.279C186.715 188.533 186.359 188.676 186.225 188.456C183.495 183.928 176.466 182.262 172.02 185.253C167.774 188.109 166.099 193.875 168.503 198.439C169.767 200.839 171.641 202.525 174.058 203.687L174.544 203.915C175.811 204.514 176.974 205.167 177.788 206.37C178.845 207.931 178.88 209.581 178.781 211.365L178.737 212.088C178.671 213.283 178.656 214.514 179.012 215.664L179.093 215.92C179.187 216.207 179.285 216.46 179.457 216.734C179.508 216.815 179.989 217.287 180.146 217.458L180.344 217.517L180.565 217.526C180.81 217.53 181.132 217.424 181.026 217.497L181.055 217.481C181.148 217.423 181.233 217.362 181.305 217.307L181.442 217.201C181.762 216.738 182.163 216.356 182.655 216.065L183.125 215.856C184.346 214.567 186.438 215.244 187.314 216.528C187.944 217.451 188.283 218.39 188.31 219.316C188.409 219.158 188.627 219.072 188.767 219.248L189.597 220.306C192.772 224.362 195.893 228.443 199.501 232.14C201.489 234.177 203.627 236.092 205.862 237.855C207.77 239.36 211.39 240.809 211.445 243.551C211.462 244.441 210.83 245.072 210.057 245.374C207.539 246.357 204.428 243.013 202.61 241.386L202.461 241.254C200.235 239.306 198.204 237.167 196.33 234.879C192.69 230.436 189.646 225.322 188.304 219.696C188.241 220.677 187.82 221.64 186.999 222.547C185.907 223.755 184.413 224.603 182.816 224.952C179.199 225.742 175.668 224.441 173.516 221.428C171.697 218.881 171.161 215.517 171.396 212.44L171.425 212.071C171.458 211.577 171.5 210.672 171.627 210.286L170.489 209.661C169.092 208.918 167.798 207.945 166.637 206.874C161.969 202.572 159.627 195.581 161.761 189.463C163.095 185.635 165.9 182.305 169.492 180.574C168.892 179.187 168.691 177.54 168.465 176.083L168.426 175.842C168.042 173.451 167.721 171.03 167.598 168.611C167.369 164.093 167.648 159.532 168.358 155.066C169.511 147.812 171.9 140.119 176.277 134.034C172.937 132.708 169.863 130.789 167.491 128.124C165.012 125.339 163.431 121.352 165.348 117.815C165.837 116.914 166.473 116.156 167.205 115.554C165.936 113.159 165.526 110.328 166.309 107.622C167.244 104.388 169.785 101.865 172.854 100.687C172.108 97.6217 172.718 94.325 174.995 91.7708C177.254 89.2368 180.761 88.314 184.008 88.8932C184.184 85.6335 183.157 82.1665 183.941 78.9516ZM174.835 193.399C177.811 191.943 181.339 192.175 184.312 193.555L184.514 193.65C187.76 195.224 192.059 198.9 191.027 202.81C190.423 205.097 187.882 205.878 185.911 204.891C184.265 204.066 183.889 202.591 183.063 201.11C182.479 200.062 181.758 199.244 180.91 198.401C179.123 196.627 177.115 195.309 174.835 194.254C174.506 194.101 174.518 193.555 174.835 193.399ZM249.834 114.364C249.556 114.237 249.758 113.8 250.039 113.88C257.518 116.015 264.492 120.808 268.659 127.46C268.913 127.866 268.952 128.534 268.659 128.936L268.524 129.118C268.333 129.368 268.144 129.552 267.785 129.607C267.109 129.712 266.523 129.536 266.133 128.936C262.028 122.595 256.769 117.535 249.834 114.364ZM299.905 115.62C300.539 114.547 302.219 114.763 302.554 115.965L302.602 116.07C302.783 116.48 302.701 116.564 302.364 116.332C303.198 117.019 303.575 118.042 303.32 119.141C301.943 125.08 295.214 129.321 289.348 128.737C288.836 128.687 288.766 128.058 289.23 127.87C291.487 126.957 293.49 125.473 295.101 123.652C296.667 121.883 297.325 119.858 298.167 117.721C298.483 116.919 298.975 116.341 299.667 116.025C299.759 115.899 299.839 115.764 299.905 115.62ZM266.545 111.803L266.585 111.805C269.6 112.195 272.207 113.682 274.324 115.861C276.362 117.959 278.935 121.421 278.715 124.501C278.569 126.542 275.665 127.709 274.582 125.62C273.935 124.373 273.789 123.007 273.336 121.689C272.921 120.48 272.347 119.333 271.66 118.257C270.246 116.041 268.302 114.163 266.311 112.469C266.078 112.27 266.24 111.804 266.545 111.803ZM189.234 110.898C188.566 110.262 189.261 109.178 190.111 109.392C194.594 110.527 199.034 111.907 203.695 112.044C206.024 112.112 208.339 111.929 210.645 111.628L211.813 111.473C213.611 111.238 215.44 111.054 217.218 111.423C218.403 111.669 218.635 113.195 217.896 113.992C214.409 117.752 207.682 117.393 203.057 116.759C198.035 116.07 192.967 114.453 189.234 110.898ZM270.194 99.1767C269.887 98.7513 270.404 98.0797 270.892 98.2685C275.347 99.99 280.017 104.472 281.244 109.161C281.569 110.4 280.006 111.335 279.088 110.415C277.379 108.702 276.171 106.678 274.726 104.752C273.286 102.832 271.6 101.127 270.194 99.1767ZM197.193 101.271C196.836 100.914 197.195 100.203 197.709 100.385C200.609 101.412 203.532 102.3 206.579 102.767C209.701 103.244 212.851 102.881 215.989 103.074C217.258 103.152 218.123 105.126 216.712 105.741C210.442 108.469 201.926 105.995 197.193 101.271ZM205.202 95.1503C204.704 94.7818 204.987 93.7703 205.666 94.0526C208.428 95.2023 211.222 95.4849 214.186 95.3666C215.281 95.3225 215.512 97.0428 214.444 97.275C211.167 97.9876 207.88 97.1295 205.202 95.1503Z" fill="#282828"/>
<path fill-rule="evenodd" clip-rule="evenodd" d="M263.103 221.341C263.681 220.336 265.012 219.405 266.231 219.547C271.689 220.187 271.68 226.802 269.572 230.664C267.703 234.089 263.836 236.099 259.965 235.805C255.899 235.497 252.434 233.107 250.909 229.304C249.901 226.788 249.435 222.145 252.118 220.454C252.167 220.423 252.249 220.431 252.289 220.476C253.575 221.972 253.626 224.218 254.752 225.883C255.799 227.432 257.426 228.711 259.332 228.908C260.755 229.056 262.195 228.543 262.752 227.265C263.053 226.574 263.019 226.199 262.906 225.723L262.803 225.31C262.446 223.862 262.286 222.76 263.103 221.341ZM264.562 192.329C267.408 194.059 271.746 198.093 268.684 202.381C265.079 206.162 259.889 201.827 257.332 199.866C254.96 198.346 252.296 202.255 254.496 204.029C272.976 217.706 280.476 192.782 266.002 190.296C264.408 190.022 263.816 191.794 264.562 192.329ZM234.501 180.468C236.249 177.848 240.237 178.234 241.199 181.343C241.721 183.028 241.001 184.542 241.038 186.224C241.069 187.645 240.976 189.229 240.54 190.605C239.547 193.743 236.723 195.96 233.383 195.868C230.053 195.777 227.121 193.67 225.727 190.703C224.327 187.725 224.624 184.643 225.645 181.614C225.694 181.469 225.885 181.398 226 181.521C227.207 182.804 228.091 184.158 229.006 185.595L229.944 187.067C230.66 188.176 231.701 189.592 233.039 189.503L233.239 189.483C233.611 189.451 233.554 189.525 233.841 189.019C233.974 188.784 233.949 188.349 234.013 188.072L234.036 187.979L234.024 187.928C233.995 187.794 233.967 187.542 233.944 187.104L233.94 187.007C233.843 184.958 233.263 182.325 234.501 180.468ZM278.792 182.213C278.479 178.861 283.192 178.117 284.759 180.597C285.577 181.89 285.815 183.515 285.995 185.054L286.08 185.785C286.265 187.366 286.339 189.01 285.652 190.485C284.571 192.807 282.22 194.035 279.684 193.841C277.262 193.654 275.052 192.251 273.887 190.12C272.849 188.218 271.816 184.505 273.077 182.522C273.154 182.402 273.306 182.386 273.41 182.479C274.602 183.537 274.796 185.466 275.505 186.844C276.236 188.266 277.345 189.651 279.025 189.867C280.632 190.074 281.246 189.196 280.836 187.664C280.307 185.686 278.991 184.341 278.792 182.213ZM235.774 160.542L236.545 160.247C239.186 159.25 242.812 158.097 244.96 160.244C246.284 161.567 246.537 163.518 245.591 165.133C244.445 167.09 242.391 167.138 240.406 167.427C238.149 167.754 235.854 168.378 233.753 169.266C231.386 170.268 229.189 171.516 227.037 172.91C224.992 174.234 222.953 176.399 220.505 176.807C220.405 176.824 220.292 176.781 220.266 176.671C219.71 174.278 221.255 171.924 222.634 170.057C224.302 167.796 226.324 165.941 228.583 164.278C230.764 162.672 233.256 161.512 235.774 160.542ZM283.75 169.05L283.986 169.009C285.587 168.742 287.039 168.804 288.246 170.072C289.167 171.039 289.522 172.293 289.083 173.572C288.678 174.752 287.771 175.95 286.456 176.198C282.016 177.033 277.097 176.895 272.635 176.262C270.593 175.973 268.533 175.619 266.544 175.06L265.629 174.795C263.969 174.321 262.069 173.826 260.863 172.605C260.429 172.166 260.679 171.539 261.198 171.336C263.302 170.512 266.186 170.95 268.43 170.886C271.04 170.811 273.654 170.615 276.252 170.346C278.79 170.082 281.247 169.509 283.75 169.05Z" fill="#282828"/>
<path fill-rule="evenodd" clip-rule="evenodd" d="M264.977 207.012C260.784 205.124 253.256 206.771 250.523 207.426C244.169 208.949 237.777 212.241 235.802 217.398C233.576 223.21 238.018 225.04 238.671 224.741C243.069 225.051 248.307 222.287 252.917 221.573C256.658 220.989 260.606 220.479 264.111 218.492C266.671 219.899 272.452 220.66 277.118 221.891C281.092 222.938 282.813 225.21 286.497 224.727C290.912 224.149 289.105 214.866 284.184 211.105C278.799 206.99 269.69 205.321 264.977 207.012ZM273.277 246.703C269.61 247.597 269.363 239.56 268.952 236.721C268.631 234.503 266.821 228.783 262.231 229.03C257.641 229.277 255.916 234.069 256.149 237.05C256.3 238.983 258.081 248.774 252.394 250.013C248.768 250 244.573 249.755 240.76 249.052C236.273 248.036 230.438 244.479 228.896 251.485C228.342 254.006 248.109 261.496 256.881 262.174C265.776 263.976 276.185 261.205 282.518 254.402C283.959 252.854 288.017 246.43 288.306 244.856C288.914 241.549 287.507 239.421 283.414 240.587C280.523 242.131 275.636 246.128 273.277 246.703Z" fill="#282828"/>
<path fill-rule="evenodd" clip-rule="evenodd" d="M298.299 194.625C293.723 199.352 286.082 200.709 279.993 198.173C264.358 191.643 272.011 171.274 284.069 165.805C285.575 165.429 287.587 164.539 289.422 164.337C289.588 164.255 289.949 164.491 290.386 164.268C303.682 165.752 306.71 186.385 298.299 194.625ZM247.869 195.835C242.736 202.641 233.193 204.741 225.395 201.577C209.992 195.512 215.455 177.451 225.994 170.37C248.257 162.007 257.45 183.285 247.869 195.835ZM214.477 180.754C214.463 180.747 214.449 180.744 214.434 180.737C214.515 180.701 214.597 180.665 214.678 180.629C214.651 180.698 214.623 180.766 214.597 180.835C214.557 180.808 214.522 180.776 214.477 180.754ZM308.897 173.397C307.64 173.4 305.824 173.606 304.784 174.478C302.218 165.828 292.748 157.823 284.512 163.66C278.026 165.745 273.213 170.369 270.478 176.517C265.546 173.585 257.791 174.837 253.515 178.715C250.714 169.463 243.821 166.223 235.616 165.745C226.661 164.279 217.735 172.973 214.95 179.948C212.634 179.684 209.174 178.947 206.995 180.376C192.856 176.669 168.137 174.626 165.262 176.685C163.214 177.471 162.09 182.304 164.951 182.565C167.444 182.211 164.66 179.024 167.173 178.676C180.564 177.846 193.564 180.542 206.813 181.673C207.996 183.264 211.818 183.796 213.857 183.157C210.646 194.988 217.578 203.038 227.966 205.449C244.05 209.142 258.043 194.759 253.837 179.798C258.71 177.375 264.314 177.479 269.622 178.755C260.752 211.386 313.323 209.922 305.113 175.596C310.577 178.313 311.763 173.945 308.897 173.397Z" fill="#282828"/>
</svg>
