<svg width="42" height="42" viewBox="0 0 42 42" fill="none" xmlns="http://www.w3.org/2000/svg">
<path opacity="0.5" d="M9.85714 23C9.38376 23 9 22.6162 9 22.1429V20.4286C9 19.9552 9.38376 19.5714 9.85714 19.5714H31.2857C32.2325 19.5714 33 20.3389 33 21.2857C33 22.2325 32.2325 23 31.2857 23H9.85714Z" fill="white"/>
<path d="M19.7878 30.3593C19.1183 31.0287 19.1183 32.1142 19.7878 32.7836C20.4572 33.4531 21.5427 33.4531 22.2121 32.7836L32.4978 22.4979C33.1468 21.8489 33.1695 20.8039 32.5493 20.1274L23.1208 9.84164C22.481 9.14372 21.3966 9.09657 20.6987 9.73633C20.0008 10.3761 19.9536 11.4605 20.5934 12.1584L28.9128 21.2342L19.7878 30.3593Z" fill="white"/>
</svg>
