<svg width="37" height="37" viewBox="0 0 37 37" fill="none" xmlns="http://www.w3.org/2000/svg">
<path opacity="0.5" d="M8.7904 19.7041C8.38111 19.7041 8.04932 19.3723 8.04932 18.963V17.4808C8.04932 17.0715 8.38111 16.7397 8.7904 16.7397H27.3174C28.136 16.7397 28.7996 17.4033 28.7996 18.2219C28.7996 19.0405 28.136 19.7041 27.3174 19.7041H8.7904Z" fill="#FF5100"/>
<path d="M17.3771 26.0668C16.7983 26.6456 16.7983 27.5841 17.3771 28.1629C17.9559 28.7417 18.8944 28.7417 19.4732 28.1629L28.3662 19.2699C28.9273 18.7088 28.9469 17.8053 28.4107 17.2204L20.2588 8.32739C19.7057 7.72397 18.7681 7.68321 18.1647 8.23634C17.5613 8.78947 17.5205 9.72704 18.0737 10.3305L25.2666 18.1773L17.3771 26.0668Z" fill="#FF5100"/>
</svg>
