<svg width="50" height="50" viewBox="0 0 50 50" fill="none" xmlns="http://www.w3.org/2000/svg">
<path fill-rule="evenodd" clip-rule="evenodd" d="M31.7967 33.0678H9.93228C8.10584 33.0678 6.6272 31.5891 6.6272 29.7627V9.9322C6.6272 8.10576 8.10584 6.62711 9.93228 6.62711H31.7967C33.6231 6.62711 35.1018 8.10576 35.1018 9.9322V29.7627C35.1018 31.5891 33.6231 33.0678 31.7967 33.0678Z" stroke="white" stroke-width="2.44068" stroke-linecap="round" stroke-linejoin="round"/>
<path d="M22.8982 24.9322H26.966" stroke="white" stroke-width="2.44068" stroke-linecap="round" stroke-linejoin="round"/>
<path d="M14.7627 14.7627L18.8305 18.8305L14.7627 22.8983" stroke="white" stroke-width="2.44068" stroke-linecap="round" stroke-linejoin="round"/>
<path d="M35.1016 16.7966H39.9322C41.7586 16.7966 43.2372 18.2752 43.2372 20.1017V39.9322C43.2372 41.7586 41.7586 43.2373 39.9322 43.2373H16.0338C14.2074 43.2373 12.7288 41.7586 12.7288 39.9322V33.0678" stroke="white" stroke-width="2.44068" stroke-linecap="round" stroke-linejoin="round"/>
</svg>
