<svg width="50" height="50" viewBox="0 0 50 50" fill="none" xmlns="http://www.w3.org/2000/svg">
<path fill-rule="evenodd" clip-rule="evenodd" d="M31.7925 33.0635H9.92993C8.10364 33.0635 6.62512 31.585 6.62512 29.7587V9.92981C6.62512 8.10352 8.10364 6.625 9.92993 6.625H31.7925C33.6188 6.625 35.0973 8.10352 35.0973 9.92981V29.7587C35.0973 31.585 33.6188 33.0635 31.7925 33.0635Z" stroke="#282828" stroke-width="2.44048" stroke-linecap="round" stroke-linejoin="round"/>
<path d="M22.895 24.9286H26.9625" stroke="#FF5100" stroke-width="2.44048" stroke-linecap="round" stroke-linejoin="round"/>
<path d="M14.76 14.7599L18.8275 18.8274L14.76 22.8949" stroke="#FF5100" stroke-width="2.44048" stroke-linecap="round" stroke-linejoin="round"/>
<path d="M35.0973 16.7936H39.9275C41.7537 16.7936 43.2323 18.2721 43.2323 20.0984V39.9273C43.2323 41.7536 41.7537 43.2321 39.9275 43.2321H16.0311C14.2048 43.2321 12.7263 41.7536 12.7263 39.9273V33.0635" stroke="#282828" stroke-width="2.44048" stroke-linecap="round" stroke-linejoin="round"/>
</svg>
